<?xml version="1.0" encoding="UTF-8"?>
<svg width="338px" height="316px" viewBox="0 0 338 316" version="1.1" xmlns="http://www.w3.org/2000/svg" xmlns:xlink="http://www.w3.org/1999/xlink">
    <!-- Generator: Sketch 43.2 (39069) - http://www.bohemiancoding.com/sketch -->
    <title>tubaroes</title>
    <desc>Created with Sketch.</desc>
    <defs>
        <linearGradient x1="50%" y1="100%" x2="50%" y2="-1.11022302e-14%" id="linearGradient-1">
            <stop stop-color="#3A1447" offset="0%"></stop>
            <stop stop-color="#761A5F" offset="100%"></stop>
        </linearGradient>
        <path d="M305.082811,83.7309708 L305.082811,83.7309708 L324.675191,83.7278435 L324.676237,83.7309708 L337.340739,83.7309708 L321.84819,38.3137648 L307.904582,38.3137648 L292.412033,83.7309708 L305.082811,83.7309708 Z M314.879524,53.1331506 L322.113842,75.7270848 L314.881616,71.9596917 L307.645205,75.7281272 L314.879524,53.1331506 Z" id="path-2"></path>
    </defs>
    <g id="Page-1" stroke="none" stroke-width="1" fill="none" fill-rule="evenodd">
        <g id="home" transform="translate(-995.000000, -3153.000000)">
            <g id="Group-10" transform="translate(0.000000, 3154.000000)">
                <g id="tubaroes" transform="translate(995.000000, 0.000000)">
                    <g id="5b1549ccee406d11c89d157c_tubaroes" transform="translate(16.214335, 0.000000)" stroke="#91449D" fill-rule="nonzero">
                        <path d="M227.33764,124.717901 C227.960458,124.507548 228.5726,124.193801 229.102883,123.808748 C230.231074,122.985162 230.494436,121.730173 230.156335,120.503707 C229.860942,119.426985 228.921377,118.860101 227.746921,118.888623 C226.803798,118.91358 225.842879,118.885058 224.917549,119.038366 C215.546813,120.578579 206.81669,123.72318 199.196961,129.556024 C198.043858,130.44022 197.211062,130.483004 195.98678,129.495414 C186.840259,122.125923 176.334215,117.398324 165.066554,114.503294 C157.930844,112.670726 150.63498,111.458522 143.161168,112.043232 C134.68373,112.702814 126.494568,114.33929 119.188028,118.938537 C114.7073,121.758696 111.126988,125.480877 109.34395,130.618486 C107.108924,137.057432 106.809972,143.564118 109.301242,149.981673 C110.824476,153.903511 113.023913,157.190724 117.287544,158.962682 C122.512094,161.13039 127.818501,162.342594 133.445213,162.766866 C144.278681,163.583322 155.001822,163.39436 165.497187,160.296107 C169.198504,159.201558 173.127593,158.263883 176.334215,156.260179 C179.740138,154.128125 183.181649,152.341906 186.961263,151.143963 C188.64465,150.612732 190.392099,150.288289 192.217844,149.842625 C192.548826,150.701865 192.894047,151.286575 192.986579,151.903373 C193.349593,154.359871 194.605905,156.310095 196.264379,158.06779 C196.783987,158.616848 197.239533,159.230081 197.705758,159.825487 C199.438969,162.046674 201.446222,163.868547 204.378803,164.250034 C206.418087,164.513867 208.471605,164.667175 210.514446,164.909617 C212.753031,165.173448 214.980938,165.526415 217.219524,165.751028 C218.11994,165.840162 219.123566,165.918598 219.938567,165.615547 C223.383638,164.342733 223.71818,162.848869 221.137937,160.356718 C215.820853,155.211979 213.891898,148.776598 213.817159,141.592503 C213.792248,139.371317 214.137466,137.27135 215.287009,135.313996 C218.151971,130.450916 221.846168,126.571861 227.33764,124.717901 Z M212.261895,159.757747 C208.69226,160.513592 206.019484,159.814791 203.667012,157.144376 C201.029823,154.153083 199.492354,150.648385 197.990474,147.072381 C197.18259,145.15068 196.378266,144.541013 194.360337,144.758497 C189.192731,145.311119 184.167481,146.555412 179.188499,148.002927 C178.665333,148.156235 178.113693,148.469982 177.743562,148.865731 C175.867992,150.883695 173.398075,151.878416 170.924599,152.801831 C167.034657,154.249346 163.180306,156.003477 159.148007,156.809237 C151.531837,158.331623 143.780427,158.549108 136.007663,157.811089 C132.131958,157.443861 128.359462,156.894804 124.665264,155.532856 C120.75041,154.088907 118.074074,151.621714 116.739465,147.678484 C114.575618,141.285887 114.799832,134.975292 117.668353,128.87505 C119.113289,125.801755 121.615237,123.612656 124.597644,122.015398 C130.736846,118.724619 137.381421,117.551633 144.253768,117.362671 C149.182925,117.22719 154.065815,117.540937 158.852614,118.817317 C167.273108,121.05633 175.490741,123.858662 182.847108,128.636175 C185.922048,130.632747 188.64465,133.156985 191.595027,135.353215 C192.456294,135.99497 193.588043,136.786468 194.524049,136.704466 C196.346236,136.547593 198.257396,136.497678 199.930106,135.346084 C202.731006,133.420818 205.603085,131.58825 208.528549,129.859075 C209.934337,129.024793 211.532308,128.514954 213.044865,127.858937 C209.361344,132.68993 207.464419,137.866757 207.592543,143.792298 C207.724223,149.475399 209.37914,154.716402 212.261895,159.757747 Z M36.0578884,124.500418 C32.7694113,124.040493 30.6803029,124.311456 26.281431,123.309605 C25.2991586,123.08499 24.7475202,122.956639 24.0250517,123.712484 C22.6690888,125.135042 21.3060079,126.578992 19.4517908,127.406143 C17.8324649,128.126336 16.383969,129.434804 14.6258438,129.641591 C9.88887081,130.201345 7.35845172,131.046323 10.2162949,127.926678 C10.5010116,127.491711 10.8319947,127.010394 11.1345061,126.511251 C13.4513877,122.703502 14.7610842,118.688966 14.0706464,114.132502 C13.7111916,111.743746 12.7858626,109.600996 11.7857954,107.461812 C10.6291341,104.991053 8.90303946,103.122832 6.34058975,102.042544 C5.07360073,101.511313 3.87779087,100.808947 2.64283248,100.188584 C1.89545132,99.8142263 -0.343133218,99.4612608 0.0447931952,98.7517645 C0.571518968,97.7891314 3.47206967,97.2329435 4.58246454,97.193725 C9.95293205,97.0011984 14.8749709,98.3845378 19.3129914,101.379396 C21.5800476,102.908913 23.7260992,104.613131 26.0500987,106.328044 C31.7052828,104.655914 33.3993468,103.903634 37.6095941,102.86613 C41.7771338,101.842886 37.6095941,102.86613 49.286535,100.188584 C48.8914907,98.8801156 48.6779533,97.9139173 48.3078217,97.0118944 C47.2365752,94.4056544 46.329041,91.7067163 43.9623339,89.8634522 C43.1366557,89.2216967 40.8019793,87.5745246 41.8625488,87.1003386 C42.9693848,86.6047608 46.7383211,87.00051 47.9519259,87.3926939 C51.2581977,88.4622862 54.1801021,90.2271135 56.8564385,92.3627329 C58.8103064,93.9207725 60.5008114,95.7961244 61.5329093,98.1420969 C61.8994818,98.9799443 62.1699626,99.85701 62.4973868,100.751902 C63.2020605,100.833904 63.8497908,100.976517 64.5010801,100.969386 C68.5404974,100.940864 72.4731459,101.682448 76.4057943,102.506034 C81.6410215,103.597018 86.1217495,105.99647 89.8515374,109.854133 C90.9797271,111.019989 92.1968907,112.146626 93.5457357,113.027257 C94.3180297,113.533531 94.9052577,113.98276 95.1899743,115.095136 C94.5707156,115.772544 93.9158673,116.574738 93.1720451,117.2878 C90.9939629,119.37707 88.1254429,120.325442 85.5523163,121.755131 C83.6767454,122.7962 81.5413707,123.355954 79.573267,124.250846 C75.7936536,125.97289 73.3806802,126.119067 69.2914376,126.814302 C67.0599709,127.19579 66.2805591,127.548756 61.0560089,127.623627 C60.5648727,127.630758 60.0523828,127.420405 59.6680153,127.352664 C58.5113539,128.860789 57.6144965,130.147865 56.6001935,131.335113 C54.1231588,134.226577 50.9556863,136.22315 47.6529734,138.016499 C46.4251328,138.683212 43.2612192,138.768779 41.7593391,138.854347 C39.5954927,138.979133 41.4639455,137.235697 42.442659,135.727572 C44.0014825,133.32812 45.1189954,130.746837 45.6777517,127.933809 C46.1226214,125.709057 45.659957,126.325855 43.5530539,125.673404 C40.1791618,124.635899 38.5420411,124.846252 36.0578884,124.500418 Z M73.7828424,58.7418802 C74.3095682,57.7792471 77.2101189,57.2230592 78.3205138,57.1838408 C83.6909812,56.9913142 88.6130201,58.3746535 93.0510406,61.3695122 C95.3180968,62.8990292 97.4641485,64.6032463 99.788148,66.3181593 C105.443332,64.64603 107.137396,63.89375 111.347643,62.8562454 C115.515183,61.8330021 111.347643,62.8562454 123.024584,60.1786993 C122.62954,58.8702314 122.416002,57.904033 122.045871,57.0020101 C120.974624,54.39577 120.06709,51.696832 117.700383,49.8535678 C116.874705,49.2118125 114.540029,47.5646403 115.600598,47.0904544 C116.707434,46.5948765 120.47637,46.9906257 121.689975,47.3828095 C124.996247,48.452402 127.918151,50.2172293 130.594488,52.3528486 C132.548356,53.9108882 134.238861,55.78624 135.270958,58.1322126 C135.637531,58.97006 135.908012,59.8471257 136.235436,60.7420179 C136.94011,60.82402 137.58784,60.9666324 138.239129,60.9595017 C142.278547,60.9309792 146.211195,61.6725632 150.143844,62.4961494 C155.379071,63.5871336 159.859798,65.9865858 163.589586,69.8442489 C164.714218,71.0101044 165.93494,72.1367416 167.283785,73.0173727 C168.056078,73.5236464 168.643307,73.9728753 168.928024,75.0852513 C168.308765,75.7626598 167.653916,76.5684193 166.910094,77.2779156 C164.732011,79.3671859 161.863492,80.3155578 159.290365,81.7452463 C157.414794,82.7863161 155.279419,83.3460695 153.311316,84.2409618 C149.531703,85.9630054 147.118729,86.1091831 143.029487,86.8044181 C140.79802,87.1859061 140.018608,87.5388714 134.794058,87.6137429 C134.302922,87.6208735 133.790432,87.4105204 133.406064,87.3427795 C132.249403,88.8509047 131.352546,90.1379808 130.338243,91.3252283 C127.861208,94.216693 124.693735,96.2132654 121.391022,98.0066152 C120.163182,98.6733278 116.999268,98.7588952 115.497388,98.8444626 C113.333542,98.9692483 115.201995,97.2258128 116.180708,95.7141223 C117.739532,93.3146702 118.857044,90.7333872 119.415801,87.9203594 C119.860671,85.6956073 119.398006,86.3124056 117.291103,85.6599542 C113.917211,84.6188844 112.28009,84.8292375 109.795938,84.4834027 C106.507461,84.023478 104.418352,84.2944413 100.01948,83.2925898 C99.0372078,83.0679754 98.4855693,82.9396245 97.7631009,83.6954697 C96.4071379,85.1180275 95.0440571,86.5619771 93.1898399,87.3891285 C91.5705142,88.1093207 90.1220182,89.4177886 88.3638929,89.6245765 C83.6269201,90.1843298 81.0965009,91.0293078 83.9543442,87.9096634 C84.2390608,87.4746959 84.5700439,86.9933794 84.8725553,86.4942363 C87.1894369,82.6900529 88.4991334,78.6719509 87.8086955,74.1154875 C87.4492408,71.7267314 86.5239117,69.5839813 85.5238446,67.4447966 C84.3671833,64.9740383 82.6375297,63.105817 80.0786389,62.0255287 C78.8116499,61.4942979 77.61584,60.7919323 76.3808817,60.1715687 C75.6299416,59.8007767 73.394916,59.4513765 73.7828424,58.7418802 Z M233.661908,61.4015999 C236.968182,62.4711922 239.890085,64.2360195 242.566421,66.371639 C244.52029,67.9296785 246.210794,69.8050304 247.242892,72.1510029 C247.609465,72.9888503 247.879946,73.865916 248.20737,74.7608083 C248.912044,74.8428103 249.559774,74.9854227 250.211064,74.9782921 C254.250481,74.9497696 258.18313,75.6913537 262.115778,76.5149397 C267.351005,77.6059239 271.831733,80.005376 275.561521,83.8630391 C276.686152,85.0288948 277.906873,86.155532 279.255719,87.036163 C280.028013,87.5424368 280.615242,87.9916656 280.899958,89.1040416 C280.280699,89.7814501 279.625851,90.5836443 278.882029,91.2967058 C276.703946,93.3859763 273.835425,94.3343482 271.262299,95.7640365 C269.386728,96.8051065 267.251354,97.3648599 265.28325,98.2597521 C261.503636,99.9817957 259.090664,100.127973 255.001421,100.823208 C252.769955,101.204696 251.990542,101.557662 246.765993,101.632533 C246.274855,101.639664 245.762365,101.429311 245.377999,101.36157 C244.221337,102.869695 243.32448,104.156771 242.310177,105.344019 C239.833142,108.235483 236.66567,110.232056 233.362957,112.025405 C232.135116,112.692118 228.971203,112.777685 227.469322,112.863253 C225.305476,112.988039 227.173929,111.244603 228.152642,109.736478 C229.711466,107.337026 230.828979,104.755743 231.387736,101.942715 C231.832604,99.717963 231.36994,100.334761 229.263037,99.6823099 C225.889144,98.64124 224.252024,98.8515932 221.767872,98.5057584 C218.479394,98.0458337 216.390287,98.316797 211.991414,97.3149455 C211.009142,97.0903311 210.457503,96.96198 209.735035,97.7178252 C208.379071,99.1403832 207.015992,100.584333 205.161773,101.411484 C203.542449,102.131676 202.093953,103.440144 200.335827,103.646932 C195.598855,104.206685 193.068435,105.051663 195.926278,101.932019 C196.210995,101.497052 196.541978,101.015735 196.844489,100.516592 C199.161371,96.7088431 200.471068,92.6943066 199.780629,88.1378432 C199.421175,85.7490869 198.495845,83.606337 197.495778,81.4671523 C196.339118,78.9963939 194.613023,77.1246074 192.050573,76.0478844 C190.783583,75.5166535 189.587773,74.8142878 188.352816,74.1939244 C187.605435,73.819567 185.36685,73.4666015 185.754777,72.7571052 C186.281502,71.7944721 189.182053,71.2418495 190.292448,71.1990657 C195.662916,71.0065391 200.584955,72.3898786 205.022975,75.3847371 C207.290031,76.9142541 209.436083,78.6184714 211.760082,80.3333843 C217.415266,78.6612549 219.10933,77.9089751 223.319577,76.8714704 C227.487118,75.8482271 223.319577,76.8714704 234.996518,74.1939244 C234.601473,72.8854563 234.387937,71.919258 234.017805,71.0172351 C232.946558,68.4109951 232.039024,65.712057 229.672317,63.8687929 C228.846639,63.2270374 226.511962,61.5798653 227.572533,61.1056794 C228.682928,60.6136669 232.451863,61.009416 233.661908,61.4015999 Z M273.657478,127.13518 C276.96375,128.204772 279.885655,129.9696 282.561991,132.105219 C284.515859,133.663259 286.206364,135.538611 287.238461,137.884583 C287.605034,138.72243 287.875516,139.599496 288.202939,140.494388 C288.907613,140.57639 289.555344,140.719003 290.206632,140.711872 C294.246049,140.68335 298.178698,141.424934 302.111347,142.24852 C307.346573,143.339504 311.827302,145.738956 315.55709,149.596619 C316.685279,150.762475 317.902443,151.889112 319.251289,152.769743 C320.023582,153.276017 320.61081,153.725246 320.895526,154.837622 C320.276269,155.51503 319.62142,156.32079 318.877597,157.030285 C316.699515,159.119557 313.830995,160.067928 311.257869,161.497617 C309.382298,162.538687 307.246923,163.098439 305.27882,163.993331 C301.499206,165.715376 299.086232,165.861553 294.99699,166.556789 C292.765523,166.938276 291.986112,167.291242 286.761561,167.366113 C286.270425,167.373244 285.757935,167.162891 285.373568,167.095149 C284.216906,168.603276 283.32005,169.890351 282.305746,171.077598 C279.828711,173.969064 276.661239,175.965635 273.358526,177.758986 C272.130686,178.425698 268.966771,178.511266 267.464892,178.596833 C265.301045,178.721619 267.169497,176.978183 268.148212,175.466493 C269.707034,173.067041 270.824548,170.485757 271.383304,167.672729 C271.828174,165.447977 271.36551,166.064775 269.258607,165.412325 C265.884714,164.371255 264.247594,164.581607 261.76344,164.235773 C258.474964,163.775848 256.385856,164.046812 251.986983,163.04496 C251.004712,162.820347 250.453072,162.691995 249.730604,163.44784 C248.374641,164.870397 247.01156,166.314347 245.157343,167.141499 C243.538017,167.861692 242.089521,169.170158 240.331397,169.376947 C235.594423,169.936701 233.064003,170.781678 235.921848,167.662034 C236.206564,167.227066 236.537546,166.74575 236.840058,166.246607 C239.156939,162.442423 240.466636,158.424322 239.776198,153.867858 C239.416745,151.479102 238.491415,149.336352 237.491348,147.197167 C236.334686,144.726409 234.608592,142.858187 232.046143,141.777899 C230.779153,141.246668 229.583343,140.544303 228.348385,139.923939 C227.601004,139.549582 225.362419,139.196616 225.750346,138.48712 C226.277071,137.524487 229.177622,136.971864 230.288017,136.929081 C235.658485,136.736554 240.580523,138.119893 245.018543,141.114752 C247.2856,142.644269 249.431651,144.348486 251.755651,146.063399 C257.410836,144.39127 259.104899,143.63899 263.315147,142.601485 C267.482686,141.578242 263.315147,142.601485 274.992087,139.923939 C274.597043,138.615471 274.383506,137.649273 274.013374,136.74725 C272.942128,134.14101 272.034593,131.442072 269.667886,129.598808 C268.842208,128.957052 266.507532,127.30988 267.568101,126.835694 C268.678496,126.347247 272.447433,126.742996 273.657478,127.13518 Z M138.16795,11.8830397 C138.694676,10.9204066 141.595227,10.3677839 142.705622,10.3250002 C148.076089,10.1324736 152.998128,11.515813 157.436148,14.5106715 C159.703205,16.0401886 161.849256,17.7444057 164.173256,19.4593188 C169.828439,17.7871894 171.522504,17.0349094 175.732751,15.9974049 C179.90029,14.9741616 175.732751,15.9974049 187.409692,13.3198587 C187.014647,12.0113908 186.801111,11.0451924 186.430979,10.1431695 C185.359732,7.53692947 184.452198,4.83799144 182.085491,2.99472731 C181.259813,2.3529719 178.925136,0.705799692 179.985705,0.231613754 C181.092541,-0.263964033 184.861477,0.131785135 186.075083,0.523968995 C189.381354,1.59356134 192.303259,3.3583887 194.979596,5.49400809 C196.933463,7.0520476 198.623969,8.9273995 199.656066,11.2733721 C200.022639,12.1112194 200.293119,12.9882851 200.620544,13.8831774 C201.325218,13.9651794 201.972947,14.1077918 202.624237,14.1006611 C206.663654,14.0721387 210.596302,14.8137227 214.528951,15.6373088 C219.764178,16.7282931 224.244907,19.1277452 227.974695,22.9854083 C229.102883,24.1512638 230.320047,25.2779011 231.668892,26.1585322 C232.441187,26.6648058 233.028414,27.1140347 233.313131,28.2264107 C232.693872,28.9038193 232.039024,29.7060135 231.295202,30.419075 C229.11712,32.5083454 226.2486,33.4567172 223.675474,34.8864057 C221.799903,35.9274755 219.664528,36.4872289 217.696424,37.3821212 C213.916811,39.1041648 211.503837,39.2503425 207.414595,39.9455775 C205.183127,40.3270655 204.403716,40.6800308 199.179165,40.7549024 C198.688029,40.762033 198.17554,40.5516798 197.791173,40.4839389 C196.634511,41.9920641 195.737653,43.2791403 194.723351,44.4663877 C192.246316,47.3578525 189.078844,49.3544248 185.776131,51.1477746 C184.548289,51.8144872 181.384376,51.9000546 179.882497,51.985622 C177.71865,52.1104077 179.587102,50.3669722 180.565816,48.8552817 C182.124639,46.4558296 183.242153,43.8745466 183.800908,41.0615188 C184.245779,38.8367668 183.783114,39.4535651 181.676211,38.8011136 C178.302318,37.7600438 176.665199,37.9703969 174.181045,37.6245621 C170.892568,37.1646374 168.803459,37.4356008 164.404588,36.4337492 C163.422315,36.2091348 162.870677,36.0807839 162.148209,36.8366291 C160.792246,38.2591869 159.429164,39.7031365 157.574948,40.5302879 C155.955622,41.2504801 154.507126,42.558948 152.749001,42.7657359 C148.012028,43.3254892 145.481609,44.1704672 148.339452,41.050823 C148.624168,40.6158553 148.955152,40.1345389 149.257663,39.6353957 C151.574545,35.8276469 152.884241,31.8131103 152.193803,27.2566469 C151.834349,24.8678908 150.90902,22.7251407 149.908952,20.585956 C148.752291,18.1151977 147.022638,16.2434112 144.463747,15.1666882 C143.196758,14.6354573 142.000948,13.9330917 140.765989,13.3127281 C140.018608,12.9419361 137.780024,12.5925359 138.16795,11.8830397 Z" id="Shape"></path>
                    </g>
                    <g id="Group-20" transform="translate(0.000000, 179.000000)">
                        <path d="M134.889475,134.960382 L134.889475,134.960382 L154.398309,134.957268 L154.399351,134.960382 L167.00985,134.960382 L151.583364,89.7368421 L137.699213,89.7368421 L122.272727,134.960382 L134.889475,134.960382 Z M144.644413,104.493036 L151.847883,126.990626 L144.646496,123.239297 L137.440942,126.991664 L144.644413,104.493036 Z" id="Shape" stroke="#9B49A7" fill-rule="nonzero"></path>
                        <rect id="Rectangle-4" fill="url(#linearGradient-1)" transform="translate(238.000000, 103.000000) scale(1, -1) rotate(45.000000) translate(-238.000000, -103.000000) " x="227" y="92" width="22" height="22"></rect>
                        <rect id="Rectangle-4" fill="url(#linearGradient-1)" transform="translate(58.000000, 63.000000) scale(1, -1) rotate(45.000000) translate(-58.000000, -63.000000) " x="47" y="52" width="22" height="22"></rect>
                        <mask id="mask-3" fill="white">
                            <use xlink:href="#path-2"></use>
                        </mask>
                        <use id="Shape" fill="url(#linearGradient-1)" fill-rule="nonzero" transform="translate(314.876386, 61.022368) rotate(20.000000) translate(-314.876386, -61.022368) " xlink:href="#path-2"></use>
                        <polygon id="Path" fill="url(#linearGradient-1)" transform="translate(207.209446, 42.026316) rotate(33.000000) translate(-207.209446, -42.026316) " points="207.209446 23.5526316 219.046023 60.4982954 207.212868 54.3378437 195.372868 60.5"></polygon>
                        <polygon id="Path" fill="url(#linearGradient-1)" transform="translate(17.209446, 22.026316) rotate(18.000000) translate(-17.209446, -22.026316) " points="17.2094456 3.55263158 29.0460232 40.4982954 17.2128681 34.3378437 5.37286809 40.5"></polygon>
                        <ellipse id="Oval-2" stroke="#91449D" stroke-width="10" cx="138.454545" cy="22.0131579" rx="15.0909091" ry="15.0131579"></ellipse>
                    </g>
                </g>
            </g>
        </g>
    </g>
</svg>